# xmcd
#
# Track frame offsets: 
#        150
#        21153
#        46976
#        81771
#        96036
#        113647
#        136417
#        145112
#        159059
#        183777
#        205966
#        225675
#
# Disc length: 3249 seconds
#
# Revision: 0
# Processed by: cddbd v1.5.2PL0 Copyright (c) Steve Scherf et al.
# Submitted via: ExactAudioCopy v0.99pb4
#
DISCID=8f0caf0c
DTITLE=Александр Черный - Новое и лучшее
DYEAR=2000
DGENRE=
TTITLE0=Судьба
TTITLE1=Гитара
TTITLE2=Монолог
TTITLE3=Балаганчик-2
TTITLE4=Маслице
TTITLE5=Бродяга пес
TTITLE6=Ногочес
TTITLE7=Соловьи-разбойники
TTITLE8=Волки
TTITLE9=Умирающий день
TTITLE10=Если б не было братвы
TTITLE11=Козырная шестерка
EXTD=
EXTT0=
EXTT1=
EXTT2=
EXTT3=
EXTT4=
EXTT5=
EXTT6=
EXTT7=
EXTT8=
EXTT9=
EXTT10=
EXTT11=
PLAYORDER=
